<?xml version="1.0" encoding="UTF-8" standalone="no"?>
<!-- Created with Inkscape (http://www.inkscape.org/) -->

<svg
   xmlns:dc="http://purl.org/dc/elements/1.1/"
   xmlns:cc="http://creativecommons.org/ns#"
   xmlns:rdf="http://www.w3.org/1999/02/22-rdf-syntax-ns#"
   xmlns:svg="http://www.w3.org/2000/svg"
   xmlns="http://www.w3.org/2000/svg"
   xmlns:sodipodi="http://sodipodi.sourceforge.net/DTD/sodipodi-0.dtd"
   xmlns:inkscape="http://www.inkscape.org/namespaces/inkscape"
   width="218.07544"
   height="55.189869"
   viewBox="0 0 57.699126 14.602319"
   version="1.1"
   id="svg4257"
   inkscape:version="0.92.0 r15299"
   sodipodi:docname="beam tv.svg">
  <defs
     id="defs4251" />
  <sodipodi:namedview
     id="base"
     pagecolor="#ffffff"
     bordercolor="#666666"
     borderopacity="1.0"
     inkscape:pageopacity="0.0"
     inkscape:pageshadow="2"
     inkscape:zoom="0.35"
     inkscape:cx="366.60916"
     inkscape:cy="69.452079"
     inkscape:document-units="mm"
     inkscape:current-layer="layer1"
     showgrid="false"
     fit-margin-top="0"
     fit-margin-left="0"
     fit-margin-right="0"
     fit-margin-bottom="0"
     units="px"
     inkscape:window-width="1280"
     inkscape:window-height="744"
     inkscape:window-x="-4"
     inkscape:window-y="-4"
     inkscape:window-maximized="1" />
  <metadata
     id="metadata4254">
    <rdf:RDF>
      <cc:Work
         rdf:about="">
        <dc:format>image/svg+xml</dc:format>
        <dc:type
           rdf:resource="http://purl.org/dc/dcmitype/StillImage" />
        <dc:title></dc:title>
      </cc:Work>
    </rdf:RDF>
  </metadata>
  <g
     inkscape:label="Layer 1"
     inkscape:groupmode="layer"
     id="layer1"
     transform="translate(84.52546,-152.60688)">
    <g
       transform="translate(-363.43527,72.171614)"
       id="g4233">
      <path
         inkscape:connector-curvature="0"
         id="path1136"
         style="fill:#99d420;fill-opacity:1;fill-rule:nonzero;stroke:none;stroke-width:0.35277778"
         d="m 279.17446,80.702776 v 4.495094 h 2.25566 v -2.230261 h 9.25442 v 9.336617 h -9.25442 v -2.260247 h -2.25566 V 94.58564 H 292.9402 V 80.702776 Z" />
      <path
         d="m 283.40349,86.496834 h -4.2291 v 2.278238 h 4.2291 z"
         style="fill:#99d420;fill-opacity:1;fill-rule:nonzero;stroke:none;stroke-width:0.35277778"
         id="path1138"
         inkscape:connector-curvature="0" />
      <path
         inkscape:connector-curvature="0"
         id="path1142"
         style="fill:#99d420;fill-opacity:1;fill-rule:nonzero;stroke:none;stroke-width:0.35277778"
         d="m 285.58052,91.683161 4.04072,-4.057297 -4.02096,-4.036836 -1.59527,1.601258 2.42676,2.435931 -2.44651,2.455686 z" />
      <path
         inkscape:connector-curvature="0"
         id="path1146"
         style="fill:#d1cac8;fill-opacity:1;fill-rule:nonzero;stroke:none;stroke-width:0.35277778"
         d="m 303.25017,89.997659 c 0,0.609247 -0.0487,1.197328 -0.14464,1.764947 -0.0967,0.56762 -0.27234,1.06927 -0.5274,1.505303 -0.25541,0.43568 -0.60713,0.785636 -1.05481,1.048455 -0.44802,0.26282 -1.03081,0.394406 -1.74766,0.394406 -0.41381,0 -0.81703,-0.103717 -1.20967,-0.311503 -0.393,-0.207786 -0.70697,-0.477661 -0.94086,-0.809625 v 0.996597 H 295.1638 V 80.699848 h 2.46133 l 0.0141,4.896203 c 0.23354,-0.345722 0.54257,-0.623006 0.92781,-0.830439 0.38523,-0.207786 0.79092,-0.311503 1.21743,-0.311503 0.83891,0 1.48837,0.166158 1.9491,0.498475 0.46108,0.331964 0.80468,0.764822 1.03152,1.297517 0.22684,0.533047 0.36442,1.128183 0.41275,1.785408 0.048,0.657578 0.0723,1.311628 0.0723,1.96215 m -2.46098,-0.955322 c 0,-0.290336 -0.0141,-0.570795 -0.042,-0.84067 -0.0275,-0.269875 -0.097,-0.508705 -0.20778,-0.716491 -0.11113,-0.207434 -0.27094,-0.370064 -0.47908,-0.487539 -0.20814,-0.117475 -0.49283,-0.176742 -0.85337,-0.176742 -0.36089,0 -0.64558,0.06597 -0.85372,0.197556 -0.20814,0.131586 -0.36795,0.300919 -0.47872,0.508352 -0.11112,0.207787 -0.18027,0.446617 -0.20814,0.716492 -0.0275,0.269875 -0.0413,0.549981 -0.0413,0.841022 v 1.162403 c 0,0.277283 0.0205,0.543631 0.0621,0.799395 0.0416,0.256116 0.11783,0.484716 0.22895,0.685094 0.11113,0.201083 0.27058,0.363361 0.47872,0.487892 0.20814,0.12453 0.47872,0.186972 0.81209,0.186972 0.34678,0 0.62477,-0.05856 0.83291,-0.176389 0.20779,-0.117475 0.36724,-0.280458 0.47837,-0.487892 0.11112,-0.207786 0.1838,-0.443089 0.21872,-0.705908 0.0346,-0.262819 0.0522,-0.540103 0.0522,-0.830792 z" />
      <path
         inkscape:connector-curvature="0"
         id="path1150"
         style="fill:#d1cac8;fill-opacity:1;fill-rule:nonzero;stroke:none;stroke-width:0.35277778"
         d="m 306.50945,90.475109 c 0.0413,0.609247 0.20673,1.114425 0.49601,1.515533 0.28998,0.401814 0.76517,0.602192 1.42733,0.602192 0.38524,0 0.7613,-0.134761 1.12678,-0.404636 0.36512,-0.269875 0.67204,-0.543278 0.92039,-0.820208 l 1.81998,1.557161 c -0.51011,0.581377 -1.07914,1.034697 -1.70638,1.359958 -0.62759,0.325261 -1.33385,0.487892 -2.11984,0.487892 -0.78564,0 -1.46121,-0.128059 -2.02636,-0.384175 -0.5655,-0.255764 -1.03082,-0.608895 -1.39594,-1.058687 -0.36548,-0.449791 -0.63465,-0.986366 -0.8068,-1.609372 -0.17251,-0.622652 -0.25859,-1.300691 -0.25859,-2.034822 0,-0.663928 0.0794,-1.307747 0.23777,-1.930753 0.15875,-0.622652 0.41028,-1.179688 0.7553,-1.671108 0.34431,-0.491419 0.77858,-0.885825 1.30281,-1.183569 0.52352,-0.297392 1.15817,-0.446617 1.90253,-0.446617 0.66181,0 1.25095,0.104069 1.76812,0.311503 0.51717,0.207786 0.95462,0.50553 1.31339,0.89288 0.35842,0.387703 0.63077,0.848078 0.81668,1.380773 0.18592,0.533047 0.2794,1.124655 0.2794,1.775177 v 1.660878 z m 3.32952,-1.972381 c -0.0279,-0.262466 -0.0759,-0.508705 -0.145,-0.737305 -0.0691,-0.228247 -0.16545,-0.425097 -0.28963,-0.591256 -0.12382,-0.166158 -0.28257,-0.297391 -0.47554,-0.394758 -0.19332,-0.09666 -0.44168,-0.144992 -0.74436,-0.144992 -0.27587,0 -0.51365,0.05151 -0.71332,0.155575 -0.20002,0.103717 -0.369,0.242359 -0.50694,0.414867 -0.13794,0.173214 -0.2413,0.37077 -0.31009,0.591961 -0.0691,0.221545 -0.11712,0.456847 -0.14464,0.705908 z" />
      <path
         inkscape:connector-curvature="0"
         id="path1154"
         style="fill:#d1cac8;fill-opacity:1;fill-rule:nonzero;stroke:none;stroke-width:0.35277778"
         d="m 321.34823,94.586134 h -2.52307 v -0.872067 c -0.26211,0.318559 -0.6036,0.564445 -1.02376,0.737306 -0.42086,0.172861 -0.83079,0.259292 -1.23049,0.259292 -0.49635,0 -0.95497,-0.05539 -1.37548,-0.166159 -0.42051,-0.110419 -0.78246,-0.286808 -1.08549,-0.529519 -0.30339,-0.242006 -0.54152,-0.553156 -0.71367,-0.934156 -0.17286,-0.380647 -0.25859,-0.841022 -0.25859,-1.380772 0,-1.121128 0.31044,-1.944511 0.93063,-2.470855 0.62053,-0.525639 1.46826,-0.788812 2.54388,-0.788812 h 2.21297 v -0.685094 c 0,-0.221192 -0.0448,-0.404989 -0.1344,-0.550333 -0.09,-0.144992 -0.20356,-0.259292 -0.34114,-0.342195 -0.13794,-0.08325 -0.29669,-0.138289 -0.4759,-0.166158 -0.17921,-0.02787 -0.35842,-0.04163 -0.53763,-0.04163 -0.42757,0 -0.78599,0.0829 -1.07527,0.249061 -0.28998,0.166159 -0.54504,0.429331 -0.76553,0.788811 l -1.98543,-1.494719 c 0.46884,-0.650522 1.05163,-1.103489 1.74907,-1.359958 0.69709,-0.255764 1.43334,-0.384175 2.20839,-0.384175 0.59443,0 1.13065,0.05574 1.60832,0.166158 0.4773,0.110772 0.88547,0.297744 1.22449,0.560917 0.33866,0.262819 0.59831,0.612069 0.77787,1.048102 0.17992,0.436034 0.27023,0.979311 0.27023,1.629834 z m -2.52307,-4.090105 h -1.86125 c -0.40005,0 -0.74154,0.06914 -1.02376,0.207433 -0.28258,0.138642 -0.42404,0.436033 -0.42404,0.89288 0,0.221545 0.0444,0.397934 0.13441,0.52952 0.0896,0.131586 0.20708,0.235303 0.35172,0.31115 0.14463,0.07655 0.30621,0.124883 0.48577,0.145697 0.17886,0.02046 0.35137,0.03104 0.51717,0.03104 0.52388,0 0.95815,-0.131586 1.30281,-0.394405 0.34467,-0.263172 0.51717,-0.678392 0.51717,-1.246011 z" />
      <path
         inkscape:connector-curvature="0"
         id="path1158"
         style="fill:#d1cac8;fill-opacity:1;fill-rule:nonzero;stroke:none;stroke-width:0.35277778"
         d="m 333.82126,94.576221 v -6.062839 c 0,-0.484011 -0.12665,-0.895703 -0.37994,-1.235428 -0.25365,-0.338666 -0.64065,-0.508352 -1.16099,-0.508352 -0.50694,0 -0.89429,0.166158 -1.16099,0.498122 -0.2667,0.332317 -0.40041,0.747536 -0.40041,1.245658 v 6.062839 h -2.52342 v -6.062839 c 0,-0.484011 -0.13017,-0.895703 -0.39017,-1.235428 -0.26035,-0.338666 -0.64382,-0.508352 -1.15005,-0.508352 -0.5207,0 -0.91123,0.166158 -1.17158,0.498122 -0.26035,0.332317 -0.39017,0.747536 -0.39017,1.245658 v 6.062839 h -2.52272 v -9.945158 h 2.52272 l -0.0208,1.121128 c 0.2346,-0.401109 0.57221,-0.719314 1.01353,-0.95497 0.44133,-0.235303 0.89606,-0.35313 1.36525,-0.35313 0.53764,0 1.01636,0.128411 1.43722,0.384175 0.42051,0.256469 0.76165,0.626533 1.02376,1.110897 0.31786,-0.484364 0.75001,-0.854428 1.29646,-1.110897 0.54645,-0.255764 1.11019,-0.384175 1.69122,-0.384175 0.49777,0 0.95744,0.09349 1.37936,0.280458 0.42192,0.186619 0.78493,0.443089 1.08938,0.76835 0.30444,0.325261 0.54292,0.705556 0.71578,1.141942 0.17286,0.43568 0.25965,0.896055 0.25965,1.380419 v 6.560961 z" />
    </g>
  </g>
</svg>
