<svg viewBox="0 0 170 40" version="1.1" xmlns="http://www.w3.org/2000/svg" xmlns:xlink="http://www.w3.org/1999/xlink"><title>CuriosityStream®-Icon-Horz-Color-Rev Copy</title><desc>Created with Sketch.</desc><defs><polygon id="path-1" points="0.0381203008 0.423492063 39.6025451 0.423492063 39.6025451 40 0.0381203008 40"></polygon></defs><g id="header-phase-1-(fix-mobile)" stroke="none" stroke-width="1" fill="none" fill-rule="evenodd"><g id="2---Nav---Sign-In---tablet" transform="translate(-48.000000, -10.000000)"><g id="CuriosityStream®-Icon-Horz-Color-Rev-Copy" transform="translate(48.000000, 10.000000)"><g id="Group-3"><mask id="mask-2" fill="white"><use xlink:href="#path-1"></use></mask><g id="Clip-2"></g><path d="M19.8015902,0.423492063 C8.86551128,0.423492063 0,9.28253968 0,20.2114286 C0,31.1403175 8.86551128,40 19.8015902,40 C30.7376692,40 39.6025451,31.1403175 39.6025451,20.2114286 C39.6025451,9.28253968 30.7376692,0.423492063 19.8015902,0.423492063" id="Fill-1" fill="#FBA60B" mask="url(#mask-2)"></path></g><path d="M19.7704586,33.2565079 C18.7240564,33.2565079 17.8771504,32.4101587 17.8771504,31.3657143 C17.8771504,30.3187302 18.7240564,29.472381 19.7704586,29.472381 C20.8168609,29.472381 21.6650376,30.3187302 21.6650376,31.3657143 C21.6650376,32.4101587 20.8168609,33.2565079 19.7704586,33.2565079" id="Fill-4" fill="#FFFFFE"></path><path d="M24.9834098,20.3288889 C24.9834098,22.3974603 23.5354737,24.1853968 21.5176391,24.8177778 L21.5176391,28.3295238 L18.0486917,28.3295238 L18.0486917,24.8177778 C16.0302218,24.1853968 14.6197707,22.3974603 14.6197707,20.3288889 L14.6197707,9.18285714 L18.0486917,9.18285714 L18.0486917,20.3288889 C18.0486917,21.2044444 18.849218,21.9073016 19.8022256,21.9073016 C20.7545977,21.9073016 21.5176391,21.2044444 21.5176391,20.3288889 L21.5176391,9.18285714 L24.9834098,9.18285714 L24.9834098,20.3288889" id="Fill-5" fill="#FFFFFE"></path><g id="Group-2" transform="translate(44.000000, 12.000000)" fill="#FFFFFE"><path d="M76.3162068,12.5549206 C76.3162068,14.8019048 74.4597481,16.6292063 72.1795188,16.6292063 C69.8980188,16.6292063 68.0434662,14.8019048 68.0434662,12.5549206 L70.8103647,12.5549206 C70.8103647,13.3034921 71.4196541,13.9339683 72.1795188,13.9339683 C72.9393835,13.9339683 73.5785338,13.3034921 73.5785338,12.5549206 C73.5785338,12.2552381 73.4571842,11.9263492 73.2748421,11.7161905 L69.0174398,6.74031746 C68.4094211,6.05142857 68.0434662,5.09269841 68.0434662,4.07428571 C68.0434662,1.82730159 69.8980188,5.5067062e-14 72.1795188,5.5067062e-14 C74.4597481,5.5067062e-14 76.3162068,1.82730159 76.3162068,4.07428571 L73.5785338,4.07428571 C73.5785338,3.32571429 72.9393835,2.72571429 72.1795188,2.72571429 C71.4196541,2.72571429 70.8103647,3.32571429 70.8103647,4.07428571 C70.8103647,4.40380952 70.9018534,4.70349206 71.0854662,4.91301587 L75.3428684,9.88888889 C75.9813835,10.607619 76.3162068,11.5365079 76.3162068,12.5549206" id="Fill-6"></path><path d="M94.6196692,6.69968254 C93.8598045,6.69968254 93.2517857,7.24444444 93.2517857,7.92571429 L93.2517857,9.1784127 L95.988188,9.1784127 L95.988188,7.92571429 C95.988188,7.24444444 95.3801692,6.69968254 94.6196692,6.69968254 Z M93.2517857,11.6571429 L93.2517857,12.8825397 C93.2517857,13.5638095 93.8598045,14.1352381 94.6196692,14.1352381 C95.3801692,14.1352381 96.0186842,13.5638095 96.0186842,12.8825397 L98.7868534,12.8825397 C98.7868534,14.9250794 96.9303947,16.6139683 94.6196692,16.6139683 C92.3388045,16.6139683 90.4842519,14.9250794 90.4842519,12.8825397 L90.4842519,7.92571429 C90.4842519,5.88253968 92.3388045,4.2215873 94.6196692,4.2215873 C96.9303947,4.2215873 98.7868534,5.88253968 98.7868534,7.92571429 L98.7868534,11.6571429 L93.2517857,11.6571429 L93.2517857,11.6571429 Z" id="Fill-7"></path><path d="M102.647169,12.8825397 C102.647169,13.5638095 103.286955,14.1079365 104.045549,14.1079365 C104.80732,14.1079365 105.415338,13.5638095 105.415338,12.8825397 L105.415338,11.6298413 L104.045549,11.6298413 C103.286955,11.6298413 102.647169,12.2012698 102.647169,12.8825397 Z M104.045549,16.5866667 C101.765955,16.5866667 99.8802707,14.9250794 99.8802707,12.8825397 C99.8802707,10.84 101.765955,9.1784127 104.045549,9.1784127 L105.415338,9.1784127 L105.415338,7.92571429 C105.415338,7.24444444 104.80732,6.69968254 104.045549,6.69968254 C103.286955,6.69968254 102.647169,7.24444444 102.647169,7.92571429 L99.8802707,7.92571429 C99.8802707,5.88253968 101.765955,4.2215873 104.045549,4.2215873 C106.327049,4.2215873 108.183508,5.88253968 108.183508,7.92571429 L108.183508,12.8825397 C108.183508,14.9250794 106.327049,16.5866667 104.045549,16.5866667 L104.045549,16.5866667 Z" id="Fill-8"></path><path d="M118.66985,4 C120.95135,4 122.806538,5.66095238 122.806538,7.70412698 L122.806538,16.3650794 L120.037733,16.3650794 L120.037733,7.70412698 C120.037733,7.02285714 119.429714,6.45142857 118.66985,6.45142857 C117.909985,6.45142857 117.27147,7.02285714 117.27147,7.70412698 L117.27147,16.3650794 L114.504571,16.3650794 L114.504571,7.70412698 C114.504571,7.02285714 113.895917,6.45142857 113.136053,6.45142857 C112.375553,6.45142857 111.736402,7.02285714 111.736402,7.70412698 L111.736402,16.3650794 L109,16.3650794 L109,7.70412698 C109,5.66095238 110.854553,4 113.136053,4 C114.200244,4 115.172312,4.35365079 115.902951,4.92634921 C116.632955,4.35365079 117.605658,4 118.66985,4" id="Fill-9"></path><path d="M86.869812,5.07174603 L86.869812,4.29650794 L84.0241316,4.29650794 L84.0241316,16.5453968 L86.869812,16.5453968 L86.8558346,8.62793651 C86.8507519,6.90730159 89.7637782,6.77777778 89.7637782,6.77777778 L89.7637782,4.27746032 C89.7637782,4.27746032 87.7027406,4.46920635 86.869812,5.07174603" id="Fill-10"></path><path d="M64.0808609,4.25904762 L66.8217105,4.25904762 L66.8217105,13.071746 C66.8217105,14.7073016 65.6761955,16.1219048 64.0808609,16.6209524 L64.0808609,19.3974603 L61.3393759,19.3974603 L61.3393759,16.6209524 C59.7421353,16.1219048 58.6271165,14.7073016 58.6271165,13.071746 L58.6271165,4.25904762 L61.3393759,4.25904762 L61.3393759,13.071746 C61.3393759,13.7638095 61.9715376,14.32 62.7244135,14.32 C63.4779248,14.32 64.0808609,13.7638095 64.0808609,13.071746 L64.0808609,4.25904762" id="Fill-11"></path><path d="M64.1977632,21.7974603 C64.1977632,22.624127 63.5268459,23.2933333 62.6996353,23.2933333 C61.8730602,23.2933333 61.2021429,22.624127 61.2021429,21.7974603 C61.2021429,20.9714286 61.8730602,20.3022222 62.6996353,20.3022222 C63.5268459,20.3022222 64.1977632,20.9714286 64.1977632,21.7974603" id="Fill-12"></path><path d="M4.09793233,16.5853968 C1.83803383,16.5853968 -3.90798505e-14,14.7498413 -3.90798505e-14,12.4920635 L-3.90798505e-14,4.27238095 C-3.90798505e-14,2.0152381 1.83803383,0.147301587 4.09793233,0.147301587 C6.35719549,0.147301587 8.19395865,2.0152381 8.19395865,4.27238095 L5.45374436,4.27238095 C5.45374436,3.51936508 4.85144361,2.88761905 4.09793233,2.88761905 C3.34442105,2.88761905 2.7122594,3.51936508 2.7122594,4.27238095 L2.7122594,12.4920635 C2.7122594,13.2450794 3.34442105,13.8450794 4.09793233,13.8450794 C4.85144361,13.8450794 5.45374436,13.2450794 5.45374436,12.4920635 L8.19395865,12.4920635 C8.19395865,14.7498413 6.35719549,16.5853968 4.09793233,16.5853968" id="Fill-13"></path><path d="M13.5276241,16.6393651 C11.2385,16.6393651 9.39983083,14.9815873 9.39983083,12.912381 L9.39983083,4.26285714 L12.1425865,4.26285714 L12.1425865,12.912381 C12.1425865,13.5930159 12.7442519,14.1657143 13.5276241,14.1657143 C14.2805,14.1657143 14.8834361,13.5930159 14.8834361,12.912381 L14.8834361,4.26285714 L17.6242857,4.26285714 L17.6242857,12.912381 C17.6242857,14.9815873 15.7875226,16.6393651 13.5276241,16.6393651" id="Fill-14"></path><polygon id="Fill-15" points="25.306797 16.5396825 28.0184211 16.5396825 28.0184211 4.27301587 25.306797 4.27301587"></polygon><path d="M21.5252632,5.03365079 L21.5252632,4.27301587 L18.8149098,4.27301587 L18.8149098,16.5396825 L21.5252632,16.5396825 L21.5112857,8.52380952 C21.5074737,6.83555556 24.2813609,6.70793651 24.2813609,6.70793651 L24.2813609,4.25460317 C24.2813609,4.25460317 22.3181654,4.44253968 21.5252632,5.03365079" id="Fill-16"></path><path d="M33.4410338,6.72444444 C32.6881579,6.72444444 32.0852218,7.27111111 32.0852218,7.95111111 L32.0852218,12.9066667 C32.0852218,13.5885714 32.6881579,14.1619048 33.4410338,14.1619048 C34.1945451,14.1619048 34.7955752,13.5885714 34.7955752,12.9066667 L34.7955752,7.95111111 C34.7955752,7.27111111 34.1945451,6.72444444 33.4410338,6.72444444 Z M33.4410338,16.6393651 C31.1817707,16.6393651 29.3450075,14.9790476 29.3450075,12.9066667 L29.3450075,7.95111111 C29.3450075,5.90857143 31.1817707,4.24698413 33.4410338,4.24698413 C35.700297,4.24698413 37.5389662,5.90857143 37.5389662,7.95111111 L37.5389662,12.9066667 C37.5389662,14.9790476 35.700297,16.6393651 33.4410338,16.6393651 L33.4410338,16.6393651 Z" id="Fill-17"></path><path d="M42.8694549,9.23111111 C45.1299887,9.23111111 46.9673872,10.8926984 46.9673872,12.935873 C46.9673872,15.0050794 45.1299887,16.6679365 42.8694549,16.6679365 C40.5803308,16.6679365 38.7429323,15.0050794 38.7429323,12.935873 L41.485688,12.935873 C41.485688,13.6450794 42.0873534,14.1879365 42.8694549,14.1879365 C43.6242368,14.1879365 44.2246316,13.6450794 44.2246316,12.935873 C44.2246316,12.2552381 43.6242368,11.7104762 42.8402293,11.7104762 C40.5803308,11.7104762 38.7429323,10.047619 38.7429323,8.00571429 C38.7429323,5.9352381 40.5803308,4.27365079 42.8694549,4.27365079 C45.1299887,4.27365079 46.9673872,5.9352381 46.9673872,8.00571429 L44.2246316,8.00571429 C44.2246316,7.29714286 43.6242368,6.75301587 42.8694549,6.75301587 C42.0873534,6.75301587 41.485688,7.29714286 41.485688,8.00571429 C41.485688,8.68571429 42.0873534,9.23111111 42.8694549,9.23111111" id="Fill-18"></path><polygon id="Fill-19" points="48.0220489 16.5396825 50.7343083 16.5396825 50.7343083 4.26095238 48.0220489 4.26095238"></polygon><path d="M56.1270602,13.792381 L57.4828722,13.792381 L57.4828722,16.5384127 L56.1270602,16.5384127 C53.8665263,16.5384127 52.0303985,14.6971429 52.0303985,12.431746 L52.0303985,0.0882539683 L54.7420226,0.0882539683 L54.7420226,4.26095238 L57.4828722,4.2647619 L57.4828722,6.93904762 L54.7420226,6.93904762 L54.7420226,12.431746 C54.7420226,13.1885714 55.3748195,13.792381 56.1270602,13.792381" id="Fill-20"></path><path d="M81.4884962,13.792381 L82.8443083,13.792381 L82.8443083,16.5384127 L81.4884962,16.5384127 C79.2279624,16.5384127 77.3918346,14.6971429 77.3918346,12.431746 L77.3918346,0.0882539683 L80.1034586,0.0882539683 L80.1034586,4.26095238 L82.8443083,4.2647619 L82.8443083,6.93904762 L80.1034586,6.93904762 L80.1034586,12.431746 C80.1034586,13.1885714 80.7362556,13.792381 81.4884962,13.792381" id="Fill-21"></path><path d="M124.059977,5.06285714 L124.156549,5.06285714 C124.268368,5.06285714 124.359857,5.02285714 124.359857,4.92507937 C124.359857,4.83873016 124.300771,4.78095238 124.172432,4.78095238 C124.119064,4.78095238 124.081579,4.78730159 124.059977,4.79301587 L124.059977,5.06285714 Z M124.054895,5.5968254 L123.851586,5.5968254 L123.851586,4.6552381 C123.931639,4.63746032 124.044094,4.62603175 124.188951,4.62603175 C124.354139,4.62603175 124.428474,4.6552381 124.493278,4.6952381 C124.540929,4.7352381 124.579049,4.81015873 124.579049,4.90222222 C124.579049,5.00571429 124.504079,5.08571429 124.397342,5.12063492 L124.397342,5.13206349 C124.482477,5.16634921 124.530763,5.23492063 124.557447,5.36126984 C124.584767,5.5047619 124.600015,5.56253968 124.621617,5.5968254 L124.401789,5.5968254 C124.375741,5.56253968 124.359857,5.47619048 124.332538,5.36698413 C124.317289,5.26412698 124.263921,5.21777778 124.150831,5.21777778 L124.054895,5.21777778 L124.054895,5.5968254 Z M123.514222,5.10285714 C123.514222,5.52190476 123.803301,5.8552381 124.199117,5.8552381 C124.584767,5.8552381 124.867492,5.52190476 124.867492,5.10920635 C124.867492,4.68952381 124.584767,4.35047619 124.193398,4.35047619 C123.803301,4.35047619 123.514222,4.68952381 123.514222,5.10285714 Z M125.091767,5.10285714 C125.091767,5.63746032 124.701669,6.05650794 124.193398,6.05650794 C123.690846,6.05650794 123.289947,5.63746032 123.289947,5.10285714 C123.289947,4.58031746 123.690846,4.16126984 124.193398,4.16126984 C124.701669,4.16126984 125.091767,4.58031746 125.091767,5.10285714 L125.091767,5.10285714 Z" id="Fill-22"></path></g></g></g></g></svg>