<?xml version="1.0" encoding="UTF-8"?>
<svg viewBox="0 0 409.21 137.9" xmlns="http://www.w3.org/2000/svg">
<defs>
<style>.cls-1{fill:#0071ba;}</style>
</defs>
<g data-name="Capa 2">
<g data-name="Capa 1">
<g data-name="#000000ff">
<path d="M245.35,1c8.85-2.14,18.89-.83,26.14,5,5.6,4.32,8.8,11.07,10,17.92-5.49-.76-10.95-1.68-16.45-2.31-1.71-3.53-4.59-6.81-8.59-7.61a13,13,0,0,0-14.22,5.78c-5.38-.32-10.76-.52-16.15-.47A26.44,26.44,0,0,1,245.35,1Z"/>
<path d="m0 58.24q0-28.74 0-57.49h29.56c7.79 0.12 15.92 3.14 20.6 9.63 6.85 8.43 5.25 20 5.6 30.1-5.07 1.45-10.19 2.7-15.26 4.15 0-6.72 0.21-13.48-0.72-20.15-0.68-5.53-5.73-9.8-11.19-10.14-4.44-0.23-8.89 0-13.33-0.09v38.37c-5.13 1.76-10.18 3.71-15.26 5.62z"/>
<path d="M69.26.75h15V34.06c-5,1.06-10,2.1-15,3.22Z"/>
<path d="M99.26.75h31.19c8.22,0,16.65,4.22,20.61,11.6,2,3.3,2.6,7.14,3.09,10.89-5.06.68-10.12,1.25-15.19,1.84.14-4.89-3-9.87-8.06-10.59-5.52-.55-11.09-.07-16.63-.23q0,7.21,0,14.43c-5,.8-10,1.68-15,2.53Z"/>
<path d="m166.51 0.75h50.49q0 6.75 0 13.5h-35.47c0 2.19 0 4.38-0.09 6.57-5 0.33-10 0.75-14.93 1.22z"/>
<path d="m175.26 92.83c3.33-2.51 6.56-5.14 10-7.55v7h9.23v9.26h-9.25c0.13 7.83-0.24 15.69 0.18 23.52 1.41 3.58 6 2.82 9.07 2.77v9c-4.89 0.38-10.24 0.56-14.55-2.13-3.67-2.6-4.53-7.44-4.65-11.65-0.09-10.05 0-20.16-0.03-30.22z"/>
<path d="m141.72 94.22c7.77-6.07 20.23-4.74 26.64 2.75-2.44 1.92-4.91 3.8-7.33 5.74-3.27-3.68-10.31-4.93-13.52-0.64-1.31 2.61 0.87 5 3.28 5.73 4.72 2.22 10.07 2.81 14.69 5.25 7.58 4.48 7.23 17.21-0.54 21.31-9.63 5.67-25 3.42-29.71-7.67 2.83-1.59 5.61-3.26 8.47-4.81 2.14 6 9.62 7.93 15 5.34 2.08-1.12 3.05-4 1.46-5.94-5.13-4-12.06-4.09-17.66-7.14-7.03-3.99-7.08-15.23-0.78-19.92z"/>
<path d="m211.49 98.81c2.54-5.21 8.22-7.54 13.75-7.66v10.77c-3.72-0.06-7.73 0.63-10.47 3.35-2.76 2.4-3.29 6.27-3.31 9.71v21.78h-9.74v-44.51h9.75q0.04 3.28 0.02 6.56z"/>
<path d="m243.06 91.73c7-1.66 15.07-0.82 20.68 4 6.64 5.39 9.27 14.44 8.07 22.73q-17.69 0-35.38 0c2.21 11.37 19.2 13.92 25.57 4.75q4 2.4 8.12 4.76c-8.79 13.49-31.66 13.05-40.24-0.42-3.6-5.42-4.32-12.34-3.15-18.63a22.43 22.43 0 0 1 16.33-17.22m-3.49 12.35c-1.68 1.77-2.46 4.14-3.25 6.4 8.63 0 17.27 0.06 25.91 0-0.76-2.17-1.38-4.5-3-6.26-4.76-5.77-14.7-5.62-19.66-0.11z"/>
<path d="m276.52 106c2.93-8.36 11-15 20-15a19.24 19.24 0 0 1 16.28 6.91c-0.05-1.89-0.07-3.77-0.08-5.65h9.77q0 22.26 0 44.52h-9.75v-6c-7.47 9.68-23.44 9-31.25 0.13-6.25-6.49-7.81-16.5-5-24.9m19.51-5.38c-7.32 1.21-12.27 9.06-10.77 16.23 0.88 7.13 8.11 12.52 15.2 11.5 7.9-0.49 13.73-8.73 12.15-16.38-0.88-7.7-9.12-13.17-16.58-11.35z"/>
<path d="m337.9 97c5.87-8.16 20-8.21 25.24 0.64 4.68-7.15 15.05-8.44 22.24-4.57 5.25 2.9 8.07 9 8.12 14.8v28.86h-9.75q0-12.89 0-25.78c0-2.78-0.24-5.86-2.19-8-3.1-3.62-9.23-3.56-12.65-0.43-2.51 2.42-3.26 6.07-3.18 9.45q0 12.39 0 24.79h-9.73v-25.8c-0.07-3-0.35-6.48-2.69-8.71-3.68-3.38-10.18-2.42-13.07 1.55-1.78 2.33-2.24 5.34-2.25 8.2q0 12.38 0 24.74h-9.76v-44.49q4.89 0 9.79 0-0.02 2.39-0.12 4.75z"/>
</g>
<g data-name="#0071baff">
<path class="cls-1" d="m285.26 0.75q27.51 0 55 0v13.49h-20q0 31.5 0 63h-15q0-31.5 0-63h-20q-0.01-6.74 0-13.49z"/>
<path class="cls-1" d="m347.32 0.75h15.63c5.18 16.38 10.2 32.81 15.2 49.25 5.17-16.42 10.15-32.85 15.22-49.25h15.84q-12.57 38.25-25.34 76.51h-11.3q-12.76-38.21-25.25-76.51z"/>
<path class="cls-1" d="m225.12 24.73c5.16 0.08 10.32 0.28 15.47 0.55-0.57 6.9-0.24 13.83-0.34 20.74 0.14 4.74 0.1 10.1 3.33 13.92 4.46 5.51 13.81 5.88 18.66 0.71 1.92-2 2.8-4.63 3.71-7.15h15.56a28.75 28.75 0 0 1-8.58 17c-12.03 11.5-34.18 9.33-43.54-4.5-3.63-5.33-4.34-11.95-4.56-18.23-0.18-7.7-0.12-15.38 0.29-23.04z"/>
<path class="cls-1" d="m166.51 28.09q7.5-0.84 15-1.59v5.25q15.12 0 30.24 0v13.74h-30.25v18h35.47c0.05 4.57 0 9.15 0 13.72q-25.25 0-50.49 0 0.02-24.54 0.03-49.12z"/>
<path class="cls-1" d="m99.25 40.63a522.82 522.82 0 0 1 54.2-10.71 21.37 21.37 0 0 1-13.15 14.42c5.57 11 11.33 21.89 16.94 32.87-5.87 0.08-11.75 0-17.62 0.06-4.87-10.23-10-20.34-14.88-30.53h-10.47q0 15.24 0 30.48h-15c-0.02-12.22 0.01-24.38-0.02-36.59z"/>
<path class="cls-1" d="m69.35 49.83c4.48-2.49 10-3.34 14.91-5.1q0 16.26 0 32.51h-15c0.07-9.13-0.14-18.24 0.09-27.41z"/>
<path class="cls-1" d="M6,77.2a321.42,321.42,0,0,1,49.3-22.88c-1,6.35-3.57,12.72-8.68,16.85-5.3,4.46-12.4,6.11-19.2,6.09C20.29,77.23,13.15,77.3,6,77.2Z"/>
</g>
</g>
</g>
</svg>
