<svg id="ARTWORK" xmlns="http://www.w3.org/2000/svg" viewBox="0 0 928 330"><defs><style>.cls-1{fill:#ff285a;}</style></defs><path class="cls-1" d="M825,188.21c14.91,0,27-5.92,27-27V58a8,8,0,0,1,8-8h60a8,8,0,0,1,8,8V242a8,8,0,0,1-8,8H860a8,8,0,0,1-8-8V203.72C840.06,239.57,818.48,255,786.85,255h0c-44.42-1.44-64.79-31.67-64.85-79.4V58a8,8,0,0,1,8-8h60a8,8,0,0,1,8,8V161.22c0,21.07,12.09,27,27,27Z"/><path class="cls-1" d="M592.42,150.59l38.11-94.33A10,10,0,0,1,639.81,50H699.2a8,8,0,0,1,7.42,11L600.46,323.75a10,10,0,0,1-9.27,6.25h-62.4a8,8,0,0,1-7.41-11l30.54-75.6L478.22,61a8,8,0,0,1,7.42-11H545a10,10,0,0,1,9.27,6.26Z"/><path class="cls-1" d="M216,0H156a8,8,0,0,0-8,8V82.59H76V8a8,8,0,0,0-8-8H8A8,8,0,0,0,0,8V242a8,8,0,0,0,8,8H68a8,8,0,0,0,8-8V150.59h72V242a8,8,0,0,0,8,8h60a8,8,0,0,0,8-8V8A8,8,0,0,0,216,0Z"/><path class="cls-1" d="M454.84,50h-60a8,8,0,0,0-8,8V96.28C374.9,60.43,353.18,45,321.69,45c0,0-45.67-2.27-71.55,52.3q-11.31,24.12-11.3,52.68t11.3,52.69C276,257.25,321.69,255,321.69,255c31.63,0,53.21-15.42,65.15-51.27V242a8,8,0,0,0,8,8h60a8,8,0,0,0,8-8V58A8,8,0,0,0,454.84,50Zm-68,106.9a32.29,32.29,0,0,1-3.35,14.59l-.05.09C372,193.92,351.67,193,351.67,193s-20.29.92-31.79-21.42a48.87,48.87,0,0,1,0-43.15c11.5-22.35,31.79-21.42,31.79-21.42s20.29-.93,31.79,21.42l.05.08a32.32,32.32,0,0,1,3.35,14.59Z"/></svg>